:SAMPLES-PER-SECOND 30
:FULLY-SPECIFIED
:DEGREES
997
root  -22.0523 38.8614 0.535194 -21.5647 -79.6006 8.81653
RightUpLeg  -17.8981 -30.2613 -6.55281
RightLeg  20.5839 -7.43534 -3.99376
RightFoot  5.62438 -0.586928 4.19318
RightToes  0.00048216 0.542163 -0.142577
Spine  37.1655 -2.2842 2.07112
Spine1  6.52257 -1.08324 -2.51989
HEad  -10.0972 1.71795 -5.4533
LeftShoulder1  10.4156 -16.0312 -46.5119
LeftArm  -20.8852 8.64399 -23.6235
LeftForeArm  20.7414 -30.4302 -5.48436
LeftHand  -0.25398 0.0180481 5.50724
RightShoulder  6.2977 10.8527 37.8282
RightArm  13.0718 -25.3023 39.6733
RightForeArm  -0.726933 22.7195 5.03708
RightHand  -0.0789212 -4.73969 -9.36299
LeftUpLeg  -5.1449 12.8801 -2.66505
LeftLeg  31.633 2.54914 2.05792
LeftFoot  -13.1629 0.161454 5.11141
LeftToes  1.06244e-005 4.65855e-005 -8.18506e-006
998
root  -20.8862 39.3117 0.61881 -16.7125 -81.4232 4.18188
RightUpLeg  -17.2529 -23.5626 -6.63768
RightLeg  30.2087 -9.98341 -6.45818
RightFoot  3.91342 -0.465384 3.67365
RightToes  0.00048216 0.542163 -0.142577
Spine  36.0356 -2.00986 2.19207
Spine1  5.91962 -0.810854 -2.45551
HEad  -8.8603 3.16793 -5.98952
LeftShoulder1  10.3143 -15.8336 -46.5315
LeftArm  -19.9284 10.3673 -23.5725
LeftForeArm  21.5984 -29.3884 -5.19093
LeftHand  -0.25398 0.0180481 5.50724
RightShoulder  6.29766 10.8455 37.8487
RightArm  12.0312 -23.2933 39.1855
RightForeArm  -1.58527 22.5058 5.08714
RightHand  -0.0946825 -4.57936 -9.92056
LeftUpLeg  -5.14166 14.5992 -1.91852
LeftLeg  27.1509 2.2011 1.58373
LeftFoot  -9.24871 -0.0474063 5.66268
LeftToes  1.06244e-005 4.65855e-005 -8.18506e-006
999
root  -19.7762 39.6966 0.668102 -9.8223 -82.7274 -2.49384
RightUpLeg  -16.1055 -19.6945 -6.00308
RightLeg  39.6848 -10.5337 -9.49572
RightFoot  3.12724 -0.353089 2.95282
RightToes  0.00048216 0.542163 -0.142577
Spine  34.734 -1.95201 2.30423
Spine1  4.98125 -0.795041 -2.36493
HEad  -6.86109 4.57397 -5.88201
LeftShoulder1  10.1459 -15.5638 -46.4174
LeftArm  -18.7386 12.9034 -23.4513
LeftForeArm  23.515 -28.0356 -4.77511
LeftHand  -0.25398 0.0180481 5.50724
RightShoulder  6.13249 10.5607 37.5729
RightArm  10.185 -21.6434 39.1239
RightForeArm  -3.33594 22.5117 5.16682
RightHand  -0.160742 -4.02535 -11.6382
LeftUpLeg  -4.81762 17.1798 -1.01804
LeftLeg  22.3568 0.858895 0.765022
LeftFoot  -5.56972 -0.27465 6.10722
LeftToes  1.06244e-005 4.65855e-005 -8.18506e-006
1000
root  -18.724 39.9082 0.688832 -3.02713 -83.4463 -9.3006
RightUpLeg  -13.5733 -17.2895 -5.62306
RightLeg  48.0776 -10.287 -12.3432
RightFoot  2.49979 -0.27411 2.39685
RightToes  0.00048216 0.542163 -0.142577
Spine  33.3429 -1.98342 2.20861
Spine1  4.0246 -0.927829 -2.2962
HEad  -4.57713 5.63999 -5.44679
LeftShoulder1  9.96104 -15.2441 -46.3473
LeftArm  -17.6405 15.8773 -23.3652
LeftForeArm  25.222 -26.5838 -4.36096
LeftHand  -0.25398 0.0180481 5.50724
RightShoulder  5.88305 10.151 37.0725
RightArm  8.20131 -20.5607 39.1329
RightForeArm  -5.35261 23.1594 5.28318
RightHand  -0.332556 -2.77033 -14.1137
LeftUpLeg  -4.57141 19.4357 -0.288068
LeftLeg  18.5247 -0.495649 -0.0986258
LeftFoot  -2.63631 -0.478039 6.49145
LeftToes  1.06244e-005 4.65855e-005 -8.18506e-006
1001
root  -17.7059 39.9653 0.687964 -1.80653 -83.814 -9.95081
RightUpLeg  -10.3117 -15.9274 -5.97251
RightLeg  54.2341 -9.7282 -14.5305
RightFoot  0.864584 -0.189411 1.81421
RightToes  0.00048216 0.542163 -0.142577
Spine  30.7637 -1.75824 1.4116
Spine1  3.8339 -1.03117 -1.946
HEad  -2.50883 5.9943 -4.75457
LeftShoulder1  9.78761 -14.9588 -46.2415
LeftArm  -16.5997 18.7931 -23.5102
LeftForeArm  25.4674 -24.9812 -4.00206
LeftHand  -0.25398 0.0180481 5.50724
RightShoulder  5.66783 9.79024 36.6371
RightArm  6.32224 -19.8936 38.6969
RightForeArm  -6.6132 24.4209 5.55172
RightHand  -0.533321 -1.52896 -15.8394
LeftUpLeg  -5.35832 18.4767 -0.49113
LeftLeg  15.6237 0.86197 -1.04005
LeftFoot  0.0225442 -0.656136 6.58871
LeftToes  1.06244e-005 4.65855e-005 -8.18506e-006
1002
root  -16.7224 39.8761 0.672717 -10.2144 -84.1064 0.100403
RightUpLeg  -7.24566 -15.0559 -7.33984
RightLeg  57.7211 -8.76809 -15.0076
RightFoot  -0.501749 -0.10673 1.11078
RightToes  0.00048216 0.542163 -0.142577
Spine  26.2919 -1.15126 -0.386019
Spine1  4.68445 -0.947057 -1.29237
HEad  -0.783072 5.64548 -3.79866
LeftShoulder1  9.60702 -14.707 -46.009
LeftArm  -15.6227 21.5201 -23.844
LeftForeArm  24.2699 -23.4098 -3.74535
LeftHand  -0.25398 0.0180481 5.50724
RightShoulder  5.51284 9.48549 36.4494
RightArm  4.82748 -19.297 37.7881
RightForeArm  -7.39002 25.6565 5.87812
RightHand  -0.6915 -0.64079 -16.804
LeftUpLeg  -7.58016 16.2403 -2.18679
LeftLeg  13.2124 3.53077 -1.75048
LeftFoot  2.57574 -0.831434 6.67223
LeftToes  1.06244e-005 4.65855e-005 -8.18506e-006
